<svg id="Grupa_1" data-name="Grupa 1" xmlns="http://www.w3.org/2000/svg" width="168.156" height="37.875" viewBox="0 0 168.156 37.875">
  <defs>
    <style>
      .cls-1 {
        fill: #fff;
      }

      .cls-1, .cls-2 {
        fill-rule: evenodd;
      }

      .cls-2 {
        fill: #566388;
      }
    </style>
  </defs>
  <path id="topaz" class="cls-1" d="M202.571,97.367h-3.827v2.425h3.827v19.379h2.806V99.792h4.449V97.367h-4.449v-8.1h-2.806v8.1Zm13.412,3.106a11.682,11.682,0,0,0,.171,15.842,11.526,11.526,0,0,0,16.382,0,11.706,11.706,0,0,0,.17-15.862,11.388,11.388,0,0,0-16.723.02h0Zm14.365,1.664a8.623,8.623,0,0,1,2.524,6.252,8.86,8.86,0,0,1-1.147,4.409,8.111,8.111,0,0,1-3.1,3.156,8.8,8.8,0,0,1-8.567,0,8.111,8.111,0,0,1-3.1-3.156,8.869,8.869,0,0,1-1.146-4.409,8.642,8.642,0,0,1,2.513-6.252A8.274,8.274,0,0,1,230.348,102.137Zm10.6,25.01h2.806V115.423a12.055,12.055,0,0,0,3.943,3.227,11.022,11.022,0,0,0,12.683-2.275,11.262,11.262,0,0,0,3.273-8.166,11.056,11.056,0,0,0-3.3-8.056,10.766,10.766,0,0,0-7.948-3.347,10.161,10.161,0,0,0-4.824,1.142,11.25,11.25,0,0,0-3.824,3.427V97.367h-2.806v29.78Zm15.541-26.484a8.436,8.436,0,0,1,3.149,3.232,8.841,8.841,0,0,1-.01,8.808,8.6,8.6,0,0,1-3.169,3.273,8.233,8.233,0,0,1-4.248,1.171,8.8,8.8,0,0,1-4.369-1.161,8.1,8.1,0,0,1-3.179-3.143,8.975,8.975,0,0,1-1.11-4.464,8.684,8.684,0,0,1,2.489-6.325,8.241,8.241,0,0,1,6.129-2.543A8.433,8.433,0,0,1,256.489,100.663Zm31.373-3.3v4.008a11.062,11.062,0,0,0-3.818-3.427,10.282,10.282,0,0,0-4.859-1.142,10.78,10.78,0,0,0-7.956,3.347,11.048,11.048,0,0,0-3.307,8.056,11.253,11.253,0,0,0,3.277,8.166,11.056,11.056,0,0,0,12.7,2.275,12.031,12.031,0,0,0,3.958-3.227v3.748h2.766v-21.8h-2.766Zm-2.312,4.687a8.674,8.674,0,0,1,2.492,6.325,8.965,8.965,0,0,1-1.111,4.464,8.131,8.131,0,0,1-3.172,3.143,8.762,8.762,0,0,1-4.364,1.161,8.29,8.29,0,0,1-4.274-1.171,8.6,8.6,0,0,1-3.172-3.273,8.834,8.834,0,0,1-.01-8.808,8.461,8.461,0,0,1,7.476-4.383A8.253,8.253,0,0,1,285.55,102.054Zm9.607-2.222h11.171l-12.334,19.339h16.774v-2.485H298.824l12.345-19.319H295.157v2.465Z" transform="translate(-143 -89.281)"/>
  <path id="mark" class="cls-1" d="M176.958,111.559l-4.626,7.31a1.194,1.194,0,0,1-.992.6H152.834a1.193,1.193,0,0,1-.992-0.6l-4.627-7.31a1.855,1.855,0,0,1,.088-2.058l13.879-17.752a1.1,1.1,0,0,1,1.81,0L176.871,109.5A1.857,1.857,0,0,1,176.958,111.559Zm-3.588.6h-4.361l-2.644,4.176h4.361Zm-15,0,2.644,4.176h2.138l2.644-4.176h-7.426Zm7.721-3.133-4.008-12.477-4.008,12.477H166.1Zm-10.732,0,2.908-9.055-7.08,9.055h4.172Zm13.448,0h4.172L165.9,99.97Zm-15.363,7.309h4.361l-2.644-4.176H150.8Z" transform="translate(-143 -89.281)"/>
  <path id="wave" class="cls-2" d="M173.874,125.7a4.132,4.132,0,0,0-5.2,0,5.567,5.567,0,0,1-7.141,0,4.132,4.132,0,0,0-5.2,0,5.567,5.567,0,0,1-7.141,0,4.133,4.133,0,0,0-5.2,0l-0.968-1.394a5.561,5.561,0,0,1,7.128-.011,4.11,4.11,0,0,0,5.229,0,5.56,5.56,0,0,1,7.116,0,4.11,4.11,0,0,0,5.229,0,5.56,5.56,0,0,1,7.116,0,4.109,4.109,0,0,0,5.229,0L181,125.712a5.446,5.446,0,0,1-3.485,1.3A5.9,5.9,0,0,1,173.874,125.7Z" transform="translate(-143 -89.281)"/>
</svg>
